<?xml version="1.0" standalone="no"?>
<!DOCTYPE svg PUBLIC "-//W3C//DTD SVG 20010904//EN"
 "http://www.w3.org/TR/2001/REC-SVG-20010904/DTD/svg10.dtd">
<svg version="1.0" xmlns="http://www.w3.org/2000/svg"
 width="512.000000pt" height="512.000000pt" viewBox="0 0 512.000000 512.000000"
 preserveAspectRatio="xMidYMid meet">

<g transform="translate(0.000000,512.000000) scale(0.100000,-0.100000)"
fill="#000000" stroke="none">
<path d="M2545 4552 c-166 -19 -343 -86 -470 -176 -78 -57 -178 -164 -250
-269 -56 -83 -68 -124 -41 -146 12 -10 10 -23 -10 -85 -13 -41 -29 -105 -35
-143 -10 -55 -18 -73 -41 -91 -41 -34 -57 -80 -62 -185 -3 -51 -10 -107 -17
-126 -10 -27 -9 -52 5 -130 39 -210 54 -261 91 -305 19 -23 53 -66 75 -98 22
-31 51 -65 65 -76 37 -29 126 -48 167 -35 27 8 43 5 93 -17 33 -15 71 -32 85
-37 22 -9 17 -11 -40 -18 -76 -9 -189 -48 -219 -76 -12 -11 -21 -29 -21 -39 0
-13 -17 -31 -50 -51 -48 -30 -80 -71 -80 -103 0 -9 -17 -23 -37 -32 -33 -14
-53 -15 -143 -6 -156 15 -288 -6 -519 -84 -153 -51 -388 -161 -493 -230 -96
-64 -181 -145 -203 -193 -15 -35 -16 -48 -6 -97 6 -32 23 -72 37 -91 33 -44
41 -37 13 11 -12 20 -25 54 -30 76 -8 35 -6 46 17 83 36 58 78 100 154 156
181 133 483 263 748 321 82 18 127 21 217 19 62 -2 117 -7 121 -11 3 -4 -8
-24 -25 -44 -43 -49 -39 -74 19 -96 25 -9 68 -17 95 -18 l50 -1 -62 -25 -62
-25 -41 21 c-32 16 -57 21 -113 19 -40 -1 -93 2 -119 6 -88 14 -119 -9 -94
-70 13 -30 13 -35 -4 -50 -24 -22 -72 -147 -68 -177 2 -18 10 -24 37 -26 37
-4 50 9 86 82 17 34 25 40 45 38 14 -2 32 -10 41 -18 8 -8 27 -14 42 -14 25 0
26 -2 16 -27 -10 -26 -5 -156 7 -209 5 -19 -3 -23 -93 -43 -146 -33 -434 -126
-548 -178 -55 -26 -131 -67 -170 -93 -38 -26 -108 -69 -154 -96 -142 -83 -220
-169 -221 -242 0 -39 52 -125 115 -188 77 -78 203 -141 435 -218 170 -57 302
-84 605 -125 605 -83 1113 -97 1790 -50 658 45 859 82 1209 221 128 51 165 70
205 107 30 28 32 34 26 73 -14 80 -59 116 -218 173 -77 28 -79 30 -101 79 -42
93 -143 162 -283 191 -74 15 -247 25 -486 26 -96 0 -145 4 -132 9 12 6 -9 7
-55 3 -41 -3 -82 -7 -90 -7 -12 -1 -15 15 -13 94 4 229 3 282 -7 319 -6 22
-10 63 -10 93 0 29 -1 64 -1 78 -2 50 14 146 27 167 14 22 15 21 136 -60 306
-205 518 -397 617 -557 28 -47 54 -95 57 -107 10 -37 23 -26 14 11 -20 92
-165 285 -307 409 -103 90 -284 225 -408 305 -38 25 -71 46 -73 47 -1 1 5 31
14 66 12 46 14 83 10 139 -4 43 -3 96 3 122 8 35 7 57 -4 96 -20 65 -95 168
-137 186 -30 12 -31 14 -13 21 11 5 33 17 48 28 21 14 38 18 65 14 55 -9 149
17 184 50 17 15 40 48 53 73 13 25 37 59 55 75 76 72 79 80 96 345 6 101 6
107 -17 135 -13 17 -41 55 -62 86 -36 54 -37 57 -22 85 35 69 -4 167 -81 200
-26 11 -33 22 -48 77 -24 90 -61 164 -107 219 -21 26 -39 57 -39 71 0 30 -33
60 -91 82 -26 9 -76 43 -112 74 -89 80 -213 165 -294 204 -65 30 -74 32 -188
32 -66 1 -133 -1 -150 -3z m283 -33 c45 -16 32 -24 -14 -9 -20 7 -60 16 -88
21 l-51 8 60 -4 c33 -2 75 -9 93 -16z m-264 -4 c-4 -10 -19 -15 -43 -15 -57 0
-178 -37 -278 -85 -113 -55 -234 -145 -309 -231 -31 -35 -59 -62 -61 -60 -10
9 90 128 147 175 134 112 290 187 448 215 101 19 102 19 96 1z m342 -98 c63
-30 214 -123 214 -131 0 -6 -104 39 -130 56 -66 43 -277 71 -387 51 -31 -6
-54 -6 -55 -1 -6 16 -38 -3 -44 -26 -4 -18 -11 -21 -42 -19 -83 6 -118 2 -169
-21 -29 -14 -53 -23 -53 -20 0 11 131 65 204 84 44 11 83 26 88 33 4 6 8 8 8
3 0 -6 6 -1 14 9 18 24 86 32 197 23 68 -6 102 -15 155 -41z m3 -71 c29 -8 60
-21 70 -29 9 -8 54 -32 101 -54 48 -23 100 -56 119 -76 19 -20 38 -34 42 -31
14 8 91 -98 124 -171 39 -85 59 -187 51 -258 -4 -28 -2 -66 3 -84 8 -29 7 -32
-20 -44 -17 -6 -36 -24 -44 -40 -22 -42 -18 -43 16 -4 24 27 39 35 64 35 44 0
65 -24 23 -27 -46 -4 -91 -45 -130 -120 -44 -85 -55 -129 -68 -279 -27 -309
-67 -369 -300 -445 -117 -39 -189 -77 -169 -91 12 -8 11 -9 -1 -5 -8 2 -27 -4
-42 -15 -99 -69 -192 -76 -293 -23 -42 22 -96 41 -143 49 -92 17 -171 45 -234
85 -77 49 -96 102 -119 333 -12 123 -28 226 -44 283 -34 120 -45 185 -45 259
0 111 46 237 124 339 20 26 36 51 36 55 1 9 80 97 80 88 0 -3 -17 -25 -37 -48
-41 -46 -21 -36 40 21 20 19 37 40 37 46 0 14 34 47 41 41 3 -3 44 29 93 69
48 41 91 75 95 75 3 0 12 -4 20 -9 8 -5 23 -3 39 5 14 7 29 11 34 8 4 -3 8 0
8 5 0 6 7 11 16 11 11 0 14 -6 9 -21 -5 -15 -4 -19 4 -15 6 4 11 0 11 -8 0 -9
9 -16 20 -16 11 0 20 5 20 10 0 6 5 10 10 10 14 0 12 -37 -2 -44 -10 -5 -10
-7 0 -12 14 -7 16 -44 2 -44 -5 0 -10 -7 -10 -15 0 -22 18 -18 52 10 29 24 31
25 44 8 12 -16 13 -11 10 37 -2 30 -4 70 -5 89 l-1 33 -47 -7 c-27 -4 -52 -13
-56 -21 -10 -18 -37 -18 -37 0 0 8 22 18 63 26 105 21 105 21 71 36 -26 13
-17 14 86 9 63 -2 139 -11 169 -19z m-514 -34 c-69 -24 -174 -96 -273 -188
-144 -133 -271 -349 -272 -460 0 -54 -7 -58 -42 -29 -16 14 -34 25 -39 25 -16
0 -10 52 17 150 33 122 37 129 69 123 35 -7 72 20 97 70 21 41 185 202 259
253 54 38 149 74 194 73 l40 0 -50 -17z m756 -49 c13 -16 12 -17 -3 -4 -17 13
-22 21 -14 21 2 0 10 -8 17 -17z m-981 -6 c0 -2 -10 -12 -22 -23 l-23 -19 19
23 c18 21 26 27 26 19z m1429 -502 c42 -36 56 -83 37 -129 -16 -39 -35 -46
-106 -35 -40 6 -80 56 -80 99 0 31 62 90 93 90 14 0 39 -11 56 -25z m-1885
-232 c-4 -54 -10 -89 -12 -78 -2 11 -13 27 -24 36 -17 13 -19 23 -14 50 7 37
44 105 52 96 3 -3 2 -49 -2 -104z m95 72 c38 -44 39 -60 3 -79 -33 -17 -58
-44 -66 -71 -3 -11 -3 2 -1 29 3 27 5 73 5 102 0 65 14 70 59 19z m1853 -92
c13 -21 37 -57 52 -79 23 -35 27 -51 24 -95 -3 -52 -4 -54 -33 -57 -47 -5 -75
32 -82 107 -5 51 -3 65 13 82 15 17 16 25 7 50 -15 38 -11 37 19 -8z m-206 -4
c-15 -17 -33 -44 -42 -60 -12 -25 -44 -41 -44 -23 0 29 68 114 91 114 20 0 19
-2 -5 -31z m-1567 -194 c45 -245 51 -284 51 -345 0 -53 -2 -61 -14 -51 -8 7
-18 27 -21 44 -4 18 -15 46 -25 62 -64 107 -97 424 -49 481 12 15 15 12 24
-27 6 -24 21 -98 34 -164z m-97 139 c-11 -23 -18 -31 -20 -21 -4 19 15 57 28
57 5 0 2 -16 -8 -36z m-22 -101 c0 -68 39 -242 59 -267 7 -8 3 -12 -17 -13
-15 -1 -21 1 -14 4 18 7 15 20 -6 25 -28 8 -44 74 -53 218 -2 38 8 70 22 70 5
0 9 -17 9 -37z m-75 -173 c8 -16 15 -51 14 -77 l0 -48 -19 45 c-17 41 -27 110
-15 110 2 0 11 -13 20 -30z m1591 -264 c3 -14 14 -32 25 -42 10 -9 19 -21 19
-25 0 -16 -62 -40 -95 -37 l-33 3 28 63 c31 66 46 77 56 38z m-1436 -131 c13
-14 21 -25 18 -25 -2 0 -15 11 -28 25 -13 14 -21 25 -18 25 2 0 15 -11 28 -25z
m1470 21 c0 -6 -106 -66 -116 -66 -5 0 18 16 51 35 64 37 65 37 65 31z m-195
-96 c-3 -5 -13 -10 -20 -10 -8 0 -58 -14 -110 -31 -65 -20 -111 -29 -143 -27
l-47 3 75 19 c41 10 93 21 114 24 22 2 56 10 75 17 44 17 64 18 56 5z m136
-43 c44 -18 105 -94 120 -151 15 -54 6 -111 -31 -203 -17 -42 -29 -78 -26 -80
2 -2 15 14 28 36 14 23 28 38 31 34 10 -9 9 -55 -3 -110 -18 -81 -20 -82 -90
-28 -34 26 -91 60 -126 75 -35 15 -62 29 -60 31 3 2 -38 1 -91 -3 -71 -5 -108
-13 -145 -31 -41 -20 -48 -22 -46 -8 2 9 24 27 51 41 26 14 47 31 47 37 0 7
15 36 34 65 18 29 47 81 64 114 46 90 83 118 172 127 26 3 22 4 -16 5 -87 3
-155 -52 -209 -170 -44 -95 -79 -146 -116 -167 -21 -12 -42 -35 -50 -53 -7
-18 -27 -45 -44 -59 -17 -15 -40 -44 -50 -63 -19 -34 -22 -36 -74 -36 -63 0
-184 49 -214 87 -25 31 -76 31 -104 1 -11 -13 -29 -39 -38 -58 -10 -19 -33
-49 -52 -67 -30 -28 -33 -35 -23 -53 6 -12 18 -24 26 -27 9 -3 -10 -17 -48
-35 -35 -16 -86 -47 -115 -69 l-52 -39 -40 48 c-23 26 -41 57 -41 70 0 46 61
179 102 222 25 25 38 47 34 56 -17 44 30 73 182 114 61 16 94 29 77 29 -43 1
-189 -35 -235 -59 l-39 -20 -3 43 -4 42 -8 -54 c-12 -74 -37 -99 -116 -117
-36 -8 -85 -18 -110 -21 -35 -5 -40 -8 -25 -14 15 -6 10 -8 -20 -8 -46 -1
-125 32 -125 51 0 23 94 118 117 118 23 0 39 -16 44 -44 2 -11 16 -23 32 -27
29 -8 29 -6 -5 43 -38 54 -9 120 71 165 40 22 49 33 48 53 -3 39 85 81 188 91
44 4 109 11 144 15 l63 7 -15 -29 c-19 -36 -11 -80 16 -99 29 -20 42 -19 22 1
-16 16 -16 68 -1 93 12 19 44 12 91 -21 42 -30 51 -32 133 -32 72 -1 99 4 156
27 80 31 87 33 60 11 -18 -14 -18 -15 6 -8 14 3 52 20 85 37 33 16 114 49 180
72 99 35 123 40 135 30 8 -7 31 -20 51 -28z m-125 -451 c28 -9 71 -32 97 -51
38 -29 47 -42 56 -85 18 -84 14 -163 -9 -190 -11 -13 -20 -29 -20 -37 0 -25
-39 -91 -66 -112 -33 -26 -57 -26 -109 -2 l-40 19 63 1 c56 1 67 4 93 30 22
23 29 39 29 70 0 59 -42 102 -155 157 -100 48 -198 74 -287 74 -32 0 -58 4
-58 9 0 26 120 109 190 132 36 12 156 4 216 -15z m-1125 -40 c-18 -18 -52 -74
-75 -124 -40 -84 -44 -90 -58 -74 -49 55 -65 152 -29 172 11 5 35 10 53 10 19
0 56 11 84 24 63 32 64 32 25 -8z m389 -26 c11 -11 20 -24 20 -29 0 -5 10 -11
23 -14 12 -3 49 -17 82 -31 56 -24 70 -26 226 -26 122 0 179 -4 220 -16 61
-18 153 -63 188 -91 23 -19 23 -20 7 -51 -57 -111 -222 -165 -390 -128 -42 10
-76 22 -76 28 0 7 -10 2 -22 -10 -33 -30 -76 -44 -128 -40 l-45 2 -3 -57 c-3
-48 -6 -57 -22 -57 -21 0 -42 31 -39 58 1 9 -1 29 -5 44 -12 40 10 93 52 129
35 29 35 30 7 16 -17 -8 -37 -27 -44 -41 -12 -22 -17 -24 -30 -13 -14 10 -14
10 -5 -3 12 -16 7 -100 -6 -100 -36 0 -36 105 1 174 25 47 17 47 -12 -1 -12
-21 -29 -44 -37 -50 -10 -8 -11 -13 -4 -13 15 0 15 -14 1 -62 -5 -21 -16 -38
-24 -38 -21 0 -36 36 -29 65 3 14 7 38 8 53 5 60 20 108 39 130 25 27 18 28
-30 2 -45 -24 -86 -26 -103 -5 -10 12 -10 18 1 31 14 17 117 72 159 85 24 7
25 7 2 8 -13 1 -37 -6 -53 -15 -17 -8 -33 -13 -36 -10 -10 9 19 66 41 81 28
20 42 19 66 -5z m-935 -65 c16 -9 26 -9 50 1 36 16 88 9 131 -17 31 -19 32
-19 75 1 66 30 86 27 93 -15 4 -19 23 -55 42 -81 26 -34 34 -54 32 -77 -3 -35
-23 -44 -99 -46 -41 -1 -47 -4 -62 -33 -65 -129 -112 -178 -167 -178 -41 0
-47 38 -16 96 14 25 22 52 20 58 -3 7 4 34 15 59 11 26 18 47 15 47 -11 0 -44
-87 -44 -117 0 -17 -5 -35 -11 -38 -47 -30 -11 155 41 206 16 16 24 29 18 29
-5 0 -29 -20 -54 -45 -24 -25 -52 -45 -64 -45 -25 0 -27 18 -2 27 9 3 29 17
45 31 22 22 27 33 25 71 -1 41 -2 42 -5 11 -3 -19 -10 -41 -16 -49 -20 -24
-97 -53 -123 -47 -20 5 -27 0 -45 -36 -12 -24 -31 -53 -42 -65 -40 -45 -83
-16 -46 30 10 14 19 37 19 51 0 41 28 75 71 86 22 6 44 8 49 5 5 -3 12 -1 15
5 4 6 1 9 -6 8 -7 -2 -19 13 -25 32 l-13 35 0 -32 c-1 -38 -13 -41 -41 -13
-26 26 -25 49 3 60 27 10 94 2 122 -15z m1865 -4 c0 -11 -4 -23 -10 -26 -6 -4
-10 5 -10 19 0 14 5 26 10 26 6 0 10 -9 10 -19z m-1027 -160 c-5 -3 -10 -47
-11 -97 -3 -101 6 -120 54 -111 18 3 22 1 15 -6 -22 -22 -234 26 -298 68 l-24
16 42 31 c23 17 79 47 124 68 46 21 86 44 91 51 6 11 8 11 12 0 2 -7 0 -16 -5
-20z m-331 -138 c-8 -7 -19 -13 -24 -13 -11 0 -25 31 -34 75 l-7 40 41 -45
c36 -40 39 -46 24 -57z m1238 72 c0 -24 -46 -65 -72 -65 -20 0 -18 3 13 25 20
13 39 31 42 40 8 19 17 19 17 0z m-1320 -20 c0 -9 9 -33 20 -54 l19 -38 -22
-20 c-64 -57 -104 -72 -230 -87 l-49 -6 31 35 c17 20 42 58 56 86 14 27 34 52
43 55 9 3 37 14 62 24 57 23 70 24 70 5z m1409 -32 c-1 -27 3 -84 10 -128 8
-48 11 -110 7 -155 -12 -139 -13 -215 -3 -238 15 -33 -7 -54 -27 -26 -13 17
-14 15 -6 -21 18 -77 12 -155 -20 -251 -17 -50 -37 -99 -44 -109 -11 -16 -14
-13 -19 29 -7 51 -37 160 -42 154 -2 -2 3 -30 11 -63 18 -78 18 -149 -1 -185
-31 -59 -126 -113 -232 -129 -104 -16 -114 -14 -58 13 73 34 121 96 140 182 4
18 -8 3 -32 -41 -35 -61 -47 -74 -104 -106 -111 -63 -115 -62 -69 23 78 147
117 322 90 403 -7 21 -29 57 -50 79 -21 23 -47 59 -58 82 -24 47 -75 95 -132
124 -22 11 -40 27 -40 34 0 8 -11 28 -25 44 -27 32 -71 48 -105 37 -24 -8 -50
-54 -50 -90 0 -22 -3 -24 -19 -15 -40 21 -92 12 -129 -22 -68 -64 -81 -80 -87
-106 -5 -23 -16 -31 -73 -50 -94 -33 -112 -36 -112 -23 0 7 -22 44 -48 84
-142 213 -157 259 -104 318 31 34 52 33 53 -4 0 -12 4 -31 9 -42 6 -13 7 0 3
35 -5 55 -5 56 36 93 l41 37 62 -34 c93 -51 198 -80 259 -72 52 7 99 -12 99
-41 0 -8 4 -11 10 -8 6 3 7 -1 4 -9 -10 -25 34 -20 58 7 21 23 22 23 102 10
51 -9 101 -26 136 -45 30 -17 76 -43 102 -57 26 -14 48 -29 48 -33 0 -4 -17
-5 -37 -2 l-38 5 35 -17 c19 -9 46 -22 59 -28 37 -17 106 -81 147 -137 20 -27
38 -48 41 -45 8 7 -14 42 -67 105 -27 32 -46 62 -42 66 4 5 1 5 -6 1 -7 -4
-15 -1 -18 8 -3 9 -10 14 -14 11 -5 -3 -15 1 -23 9 -8 8 -17 12 -21 9 -3 -4
-6 -1 -6 5 0 7 4 12 9 12 23 0 216 -75 246 -95 18 -13 42 -26 54 -29 12 -3 30
-9 41 -12 36 -10 21 12 -22 33 -24 11 -81 40 -128 65 -63 33 -106 48 -165 58
-62 9 -89 19 -118 42 -47 38 -172 86 -243 94 -38 5 -54 11 -54 22 0 10 7 13
20 9 17 -4 20 -2 15 14 -7 20 -7 20 44 25 56 4 101 14 101 23 0 4 33 2 73 -5
86 -16 148 -17 202 -4 34 8 48 5 90 -15 34 -17 64 -24 95 -22 l45 2 40 77 c22
43 44 78 48 78 4 0 7 -21 6 -47z m-869 -119 c0 -9 -5 -14 -12 -12 -18 6 -21
28 -4 28 9 0 16 -7 16 -16z m-618 -93 c-2 -22 3 -51 12 -69 20 -38 22 -62 4
-44 -18 18 -96 14 -153 -7 -27 -10 -81 -28 -120 -41 l-69 -22 -33 36 c-36 38
-43 73 -17 83 9 3 39 1 67 -5 29 -6 81 -14 117 -17 91 -7 64 11 -35 24 -44 6
-97 13 -118 17 -44 7 -67 -7 -67 -42 0 -18 -5 -24 -23 -24 -33 0 -67 -35 -67
-70 0 -27 -2 -29 -57 -35 -156 -16 -458 -78 -535 -110 -35 -14 -17 15 29 50
97 70 403 186 608 230 61 13 123 28 138 34 16 6 92 18 169 26 78 8 143 17 146
20 3 3 6 5 6 5 1 0 0 -17 -2 -39z m756 -76 c36 -30 79 -146 85 -227 2 -32 10
-66 19 -75 24 -27 29 -66 19 -135 -13 -91 -46 -169 -92 -222 -57 -65 -83 -76
-179 -76 -71 0 -88 -4 -143 -32 -76 -38 -143 -43 -185 -12 -42 32 -74 123 -80
232 -2 50 -1 92 3 92 4 0 23 -17 40 -37 40 -46 55 -40 20 8 -42 58 -68 117
-61 142 9 35 91 76 176 86 64 8 105 21 69 21 -8 0 -20 4 -28 9 -19 12 3 75 35
95 23 16 24 16 24 -9 0 -14 6 -25 13 -25 9 0 12 9 9 28 -2 19 3 33 17 46 19
17 26 18 62 7 32 -10 44 -20 56 -49 8 -20 22 -42 32 -50 14 -11 9 -12 -31 -10
-63 4 -51 -8 16 -16 30 -3 61 -9 70 -12 19 -7 66 38 66 63 0 14 -3 13 -13 -6
-22 -44 -43 -49 -77 -16 -16 16 -35 45 -40 64 -32 115 23 179 98 116z m-649
-150 c27 -40 58 -86 70 -101 15 -19 20 -35 15 -49 -4 -11 -8 -45 -10 -75 -2
-30 -6 -93 -9 -140 -5 -67 -2 -99 13 -153 l19 -67 -21 -4 c-56 -12 -96 -13
-135 -6 -31 5 -54 4 -77 -6 -56 -23 -57 -16 -6 34 70 68 74 110 21 212 -12 25
-24 50 -26 55 -2 6 -11 40 -21 77 -10 37 -26 76 -35 86 -9 10 -17 34 -17 53
l0 34 22 -34 c12 -18 22 -41 23 -50 2 -20 95 -214 100 -209 3 2 -5 32 -16 67
-10 35 -18 66 -16 67 4 4 31 -53 63 -131 9 -22 18 -35 21 -28 8 21 -56 154
-113 235 -31 44 -60 94 -66 111 -17 50 -27 58 -64 51 -21 -4 -34 -2 -34 4 0
16 23 27 28 14 3 -9 9 -8 25 3 18 13 22 12 33 -2 11 -16 14 -14 38 14 53 63
106 45 175 -62z m-495 79 c32 -31 11 -64 -39 -64 -34 0 -55 15 -55 40 0 39 64
55 94 24z m186 -81 c0 -31 2 -33 34 -33 26 0 35 -5 39 -22 3 -12 1 -30 -4 -40
-8 -15 -5 -25 15 -49 21 -24 26 -41 26 -84 0 -30 -4 -65 -10 -80 -8 -20 -6
-29 9 -44 12 -12 21 -41 26 -86 6 -60 5 -69 -14 -86 -12 -11 -21 -27 -21 -35
0 -23 -36 -87 -64 -113 -23 -21 -32 -23 -93 -19 -76 6 -140 33 -172 74 -12 15
-30 59 -42 98 -12 39 -39 110 -60 157 -44 99 -59 183 -36 214 12 15 25 19 58
16 51 -3 56 -6 41 -24 -6 -7 13 -1 43 13 29 14 53 29 52 34 -1 5 14 20 33 34
35 24 34 24 -29 7 -31 -9 -35 32 -5 52 18 11 22 19 15 26 -15 15 -13 27 4 27
8 0 15 -4 15 -9 0 -4 13 -8 29 -7 16 1 27 3 25 5 -3 3 8 10 23 16 39 16 63 0
63 -42z m1068 43 c67 -35 114 -118 134 -235 19 -113 -32 -302 -111 -409 -35
-48 -115 -92 -166 -92 -42 0 -145 34 -155 51 -13 21 26 38 86 39 96 0 175 63
214 170 l19 55 1 -60 c1 -55 2 -58 15 -41 27 36 11 292 -21 327 -8 9 -19 46
-24 81 -4 35 -13 76 -19 91 -17 44 -15 45 27 23z m-1300 -62 c41 -28 22 -94
-28 -94 -33 0 -70 30 -70 57 0 24 30 53 54 53 12 0 32 -7 44 -16z m-116 -36
c2 -25 -4 -42 -26 -67 -27 -33 -28 -38 -23 -105 5 -59 14 -87 53 -161 38 -74
48 -102 52 -157 4 -58 2 -69 -13 -74 -10 -4 -68 5 -129 19 -99 24 -130 31
-186 41 -8 2 -22 6 -30 9 -8 3 -53 18 -100 33 -107 34 -215 85 -258 121 -18
15 -39 46 -47 68 -9 26 -14 32 -15 19 0 -12 15 -43 33 -70 32 -49 65 -69 217
-137 56 -25 169 -60 228 -71 18 -3 40 -13 48 -21 9 -8 14 -15 12 -15 -2 0 -84
14 -183 30 -182 31 -330 66 -396 94 -44 19 -99 79 -99 109 0 49 124 160 226
201 33 14 91 37 129 54 115 48 373 109 472 111 29 1 32 -2 35 -31z m1600 -133
c7 -22 12 -80 12 -130 0 -77 -5 -101 -32 -171 -18 -45 -50 -106 -72 -137 -33
-46 -50 -59 -98 -78 -113 -43 -300 -31 -348 22 -9 10 -20 16 -24 14 -4 -3 -14
3 -21 12 -12 14 -12 16 1 11 8 -2 21 1 28 9 19 19 27 16 42 -12 18 -34 74 -58
145 -63 123 -8 200 39 261 160 67 134 79 174 79 283 0 55 -3 114 -8 130 -7 28
-6 29 8 10 8 -11 21 -38 27 -60z m1250 42 c88 -21 145 -47 192 -87 34 -30 72
-87 64 -95 -8 -8 -187 39 -182 47 3 4 -7 8 -23 8 -15 0 -82 10 -148 21 -66 11
-205 24 -310 29 -104 5 -236 14 -292 21 -97 11 -103 13 -103 35 0 40 32 44
395 40 262 -3 355 -7 407 -19z m-3562 -11 c0 -2 -19 -16 -41 -31 -23 -15 -62
-46 -88 -68 l-46 -41 40 43 c44 46 135 112 135 97z m2935 -97 c33 -5 96 -9
140 -9 202 0 575 -64 700 -119 31 -14 45 -16 49 -8 9 24 6 -39 -5 -76 -11 -42
-67 -89 -155 -131 -96 -46 -410 -123 -639 -157 -138 -20 -459 -26 -542 -10
-32 6 -43 5 -47 -6 -5 -11 -22 -13 -78 -9 -57 4 -63 3 -28 -3 25 -5 99 -12
165 -17 l120 -8 -80 -7 c-114 -9 -776 8 -989 25 -248 21 -527 70 -346 61 69
-4 71 -3 20 4 -31 4 -66 13 -78 20 -21 11 -21 14 -8 33 14 19 26 22 128 24 62
2 142 6 178 9 58 4 68 2 84 -16 9 -12 15 -27 12 -35 -3 -8 -1 -14 5 -14 5 0
12 7 15 15 7 17 40 20 49 6 7 -12 -61 -32 -81 -24 -8 3 -14 0 -14 -6 0 -6 -12
-12 -27 -12 -18 -1 -21 -3 -10 -6 9 -2 15 -8 12 -13 -3 -4 37 -6 87 -3 51 2
200 -1 331 -7 177 -9 241 -9 251 -1 9 7 60 11 142 11 71 -1 147 1 169 4 22 3
115 10 206 16 187 11 358 39 453 74 80 29 192 122 198 164 7 47 -10 89 -48
120 -62 51 -220 92 -416 108 -49 4 -88 11 -88 16 0 9 46 5 165 -13z m-70 -51
c32 2 241 -33 290 -48 17 -6 46 -12 65 -14 39 -4 80 -45 80 -79 0 -50 -60 -98
-168 -135 -34 -12 -74 -22 -88 -22 l-26 0 26 31 c21 24 26 40 25 77 l-2 47 -6
-46 c-4 -26 -13 -55 -21 -64 -36 -44 -170 -77 -380 -93 -63 -6 -116 -9 -117
-8 -2 1 17 16 41 33 70 49 145 184 171 307 6 27 8 28 43 20 20 -4 51 -7 67 -6z
m-3058 -80 c-3 -7 -5 -2 -5 12 0 14 2 19 5 13 2 -7 2 -19 0 -25z m4096 -48
c14 -44 15 -56 3 -89 -19 -57 -62 -107 -119 -141 -60 -34 -56 -40 6 -9 83 43
174 166 160 218 -6 22 -4 22 18 11 13 -7 36 -23 50 -37 14 -13 32 -23 40 -21
8 2 18 -10 23 -29 12 -41 26 -43 26 -4 0 21 -11 39 -40 65 -22 20 -45 36 -52
36 -6 0 -9 3 -6 6 10 9 85 -34 107 -62 27 -35 27 -45 -6 -76 -106 -97 -305
-150 -718 -193 -224 -24 -252 -18 -90 16 178 37 365 99 445 148 77 46 110 95
110 164 0 64 22 62 43 -3z m-4053 -15 c23 -26 26 -33 10 -20 -30 24 -49 47
-50 59 0 5 1 7 3 5 1 -2 18 -22 37 -44z m343 -160 c142 -35 319 -74 395 -85
160 -23 340 -55 397 -70 48 -12 305 -45 465 -60 678 -63 1481 -51 2035 31 214
31 214 31 185 19 -116 -51 -417 -94 -915 -132 -648 -49 -1049 -43 -1670 28
-489 55 -800 130 -1030 247 -71 36 -147 87 -129 87 5 0 125 -29 267 -65z
m3922 -4 c-12 -12 -131 -71 -142 -71 -10 1 128 77 142 79 6 1 6 -2 0 -8z
m-3300 -41 c7 -12 -37 -12 -110 0 -49 7 -48 7 27 9 42 0 80 -3 83 -9z m300
-60 c3 -5 1 -10 -4 -10 -6 0 -11 5 -11 10 0 6 2 10 4 10 3 0 8 -4 11 -10z
m2612 -46 c-3 -3 -12 -4 -19 -1 -8 3 -5 6 6 6 11 1 17 -2 13 -5z m-579 -21
c-10 -2 -26 -2 -35 0 -10 3 -2 5 17 5 19 0 27 -2 18 -5z m-91 -9 c-3 -3 -12
-4 -19 -1 -8 3 -5 6 6 6 11 1 17 -2 13 -5z m-299 -11 c-10 -2 -26 -2 -35 0
-10 3 -2 5 17 5 19 0 27 -2 18 -5z m-1731 -89 c-3 -3 -12 -4 -19 -1 -8 3 -5 6
6 6 11 1 17 -2 13 -5z m1836 -31 c-7 -2 -21 -2 -30 0 -10 3 -4 5 12 5 17 0 24
-2 18 -5z m-135 -10 c-16 -2 -40 -2 -55 0 -16 2 -3 4 27 4 30 0 43 -2 28 -4z
m-155 -10 c-13 -2 -33 -2 -45 0 -13 2 -3 4 22 4 25 0 35 -2 23 -4z"/>
<path d="M2815 4324 c8 -6 12 -14 8 -17 -3 -4 -3 -7 0 -7 3 0 11 8 16 18 7 14
5 17 -15 17 -20 0 -22 -2 -9 -11z"/>
<path d="M2744 4298 c-5 -8 -2 -9 10 -5 14 6 16 3 10 -16 -21 -70 -63 -138
-121 -194 -35 -35 -61 -63 -57 -63 19 0 100 81 146 147 29 41 60 85 68 96 11
15 11 19 2 13 -9 -5 -15 -1 -19 13 -6 23 -27 28 -39 9z"/>
<path d="M2790 4215 c-6 -8 -10 -19 -8 -24 1 -6 8 1 15 14 13 28 11 31 -7 10z"/>
<path d="M2626 4152 c-3 -5 1 -9 9 -9 8 0 12 4 9 9 -3 4 -7 8 -9 8 -2 0 -6 -4
-9 -8z"/>
<path d="M2570 4084 c-25 -26 -36 -41 -25 -34 19 12 81 80 73 80 -2 0 -24 -21
-48 -46z"/>
<path d="M2400 4059 c0 -5 -5 -7 -12 -3 -6 4 -8 3 -5 -3 4 -6 -14 -34 -40 -63
-43 -48 -61 -80 -45 -80 3 0 30 25 59 55 50 51 77 105 53 105 -5 0 -10 -5 -10
-11z"/>
<path d="M2465 3968 l-60 -63 63 60 c58 55 67 65 59 65 -1 0 -29 -28 -62 -62z"/>
<path d="M2165 3950 c-22 -11 -29 -17 -16 -14 38 10 88 33 71 33 -8 0 -33 -8
-55 -19z"/>
<path d="M2740 3391 c36 -9 71 -20 78 -24 6 -5 12 -5 12 -2 0 13 -87 45 -120
44 -29 -1 -24 -4 30 -18z"/>
<path d="M2057 3349 c-9 -5 -24 -24 -33 -42 l-17 -32 36 32 c21 18 53 35 74
38 60 10 62 13 8 14 -27 0 -58 -4 -68 -10z"/>
<path d="M2648 3224 c-36 -19 -47 -60 -22 -79 43 -33 77 -36 160 -17 61 15 74
21 57 26 -26 8 -31 26 -7 26 8 0 12 -4 9 -10 -10 -16 11 -12 25 4 9 12 3 19
-39 40 -58 30 -139 34 -183 10z m131 -7 c25 -13 30 -29 12 -35 -6 -2 -12 5
-12 15 -1 16 -2 16 -6 1 -3 -14 -9 -16 -23 -8 -31 16 -117 -20 -103 -44 4 -8
3 -8 -6 0 -49 45 71 106 138 71z"/>
<path d="M2135 3205 c-16 -8 -43 -25 -60 -39 l-30 -26 31 0 c23 0 33 5 37 20
7 29 45 40 102 29 62 -12 69 -19 17 -19 -54 0 -93 -16 -99 -40 -3 -10 -17 -23
-32 -29 -21 -7 -11 -10 52 -10 62 -1 86 4 120 21 23 12 45 21 50 20 15 -4 6
15 -17 37 -21 20 -102 52 -130 51 -6 -1 -24 -7 -41 -15z"/>
<path d="M2530 3052 c34 -11 36 -55 3 -60 -13 -2 -23 1 -23 7 0 6 -9 11 -20
11 -11 0 -20 -7 -20 -16 0 -22 79 -15 94 9 15 23 -3 51 -35 54 -24 2 -24 2 1
-5z"/>
<path d="M2334 3035 c-3 -8 -4 -20 -2 -27 3 -7 7 -1 10 15 6 29 1 36 -8 12z"/>
<path d="M2615 3020 c10 -11 20 -20 23 -20 3 0 -3 9 -13 20 -10 11 -20 20 -23
20 -3 0 3 -9 13 -20z"/>
<path d="M2360 2980 c0 -5 14 -10 31 -10 17 0 28 4 24 10 -3 6 -17 10 -31 10
-13 0 -24 -4 -24 -10z"/>
<path d="M2696 2899 c-36 -22 -182 -52 -251 -53 -38 -1 -99 2 -135 6 -39 4
-50 4 -27 -1 44 -9 81 -41 98 -84 30 -76 98 -122 165 -112 61 9 97 43 124 117
28 77 46 105 71 113 11 4 17 11 14 16 -8 12 -36 11 -59 -2z m-54 -118 c-4 -11
-22 -35 -40 -55 -30 -33 -37 -36 -87 -36 -29 0 -56 4 -59 9 -3 5 3 20 14 34
15 18 34 27 69 32 27 4 58 13 68 21 27 20 44 18 35 -5z"/>
<path d="M3067 2636 c-43 -19 -110 -57 -148 -85 -83 -61 -275 -159 -379 -193
-41 -14 -118 -36 -170 -49 -121 -29 -103 -36 26 -10 135 28 245 65 334 113 70
37 73 38 50 13 -14 -15 13 3 60 41 110 88 223 160 283 180 26 9 47 17 47 20 0
10 -31 1 -103 -30z"/>
<path d="M2745 2490 c-47 -23 -110 -44 -153 -52 -44 -7 -67 -15 -56 -18 42
-15 216 44 279 94 28 22 20 19 -70 -24z"/>
<path d="M3332 2440 c0 -14 2 -19 5 -12 2 6 2 18 0 25 -3 6 -5 1 -5 -13z"/>
<path d="M1760 2245 c7 -9 15 -13 17 -11 7 7 -7 26 -19 26 -6 0 -6 -6 2 -15z"/>
<path d="M1667 2193 c-13 -13 -7 -21 24 -32 33 -11 88 -15 59 -4 -8 3 -27 14
-42 24 -29 21 -32 22 -41 12z"/>
<path d="M2711 1904 c0 -11 3 -14 6 -6 3 7 2 16 -1 19 -3 4 -6 -2 -5 -13z"/>
<path d="M1466 2035 c-3 -9 -6 -26 -5 -38 1 -14 4 -9 9 13 9 37 7 52 -4 25z"/>
<path d="M1861 1577 c-1 -29 24 -69 75 -117 52 -50 50 -43 -11 41 -22 31 -45
65 -52 75 -11 18 -12 18 -12 1z"/>
<path d="M2733 1483 c15 -2 39 -2 55 0 15 2 2 4 -28 4 -30 0 -43 -2 -27 -4z"/>
<path d="M2876 1398 c65 -68 106 -129 151 -226 42 -90 56 -83 18 9 -49 115
-165 269 -204 269 -9 0 3 -19 35 -52z"/>
<path d="M3067 1358 c75 -83 113 -181 134 -348 15 -118 34 -147 26 -40 -6 86
-40 226 -67 279 -24 47 -71 107 -107 134 -19 15 -15 7 14 -25z"/>
<path d="M2983 1030 c-6 -25 -10 -47 -8 -49 8 -7 26 52 23 73 -2 13 -7 4 -15
-24z"/>
<path d="M2561 1364 c0 -11 3 -14 6 -6 3 7 2 16 -1 19 -3 4 -6 -2 -5 -13z"/>
<path d="M2550 1262 c0 -12 -5 -33 -12 -47 -10 -22 -9 -28 10 -41 35 -24 29
-70 -10 -94 -41 -25 -80 -25 -159 0 -76 23 -89 19 -22 -6 28 -11 74 -19 110
-19 35 0 63 -3 63 -7 0 -21 29 -4 46 27 17 31 17 38 4 67 -7 18 -14 54 -15 80
-1 46 -15 83 -15 40z"/>
<path d="M2065 803 c8 -18 25 -39 38 -47 29 -18 101 -31 92 -17 -3 6 -15 11
-26 11 -30 0 -74 26 -98 57 l-22 28 16 -32z"/>
<path d="M1740 1335 c0 -17 34 -40 73 -49 37 -9 34 -1 -15 34 -46 34 -58 37
-58 15z"/>
<path d="M1409 793 c18 -35 96 -89 147 -102 40 -10 50 -9 76 6 17 10 38 29 47
43 l16 25 -33 -23 c-36 -27 -113 -35 -134 -14 -9 9 -5 12 24 12 38 0 88 32 88
56 0 13 -5 12 -30 -3 -16 -9 -30 -21 -30 -26 0 -4 -4 -5 -10 -2 -5 3 -10 1
-10 -4 0 -6 -21 -11 -47 -11 -39 0 -53 5 -81 33 -26 24 -32 27 -23 10z"/>
<path d="M1863 613 c9 -2 23 -2 30 0 6 3 -1 5 -18 5 -16 0 -22 -2 -12 -5z"/>
<path d="M1963 613 c9 -2 23 -2 30 0 6 3 -1 5 -18 5 -16 0 -22 -2 -12 -5z"/>
<path d="M3480 1016 c0 -2 7 -7 16 -10 8 -3 12 -2 9 4 -6 10 -25 14 -25 6z"/>
<path d="M3561 959 c24 -24 46 -43 48 -41 7 4 -51 62 -73 74 -11 6 0 -9 25
-33z"/>
<path d="M3801 953 c14 -20 20 -41 17 -57 -3 -14 -1 -23 3 -20 18 10 8 54 -17
81 l-25 28 22 -32z"/>
<path d="M600 1485 c0 -2 27 -18 60 -35 33 -17 60 -28 60 -25 0 2 -27 18 -60
35 -33 17 -60 28 -60 25z"/>
</g>
</svg>
